<mxfile host="app.diagrams.net" modified="2021-12-26T10:07:17.411Z" agent="5.0 (Windows NT 10.0; Win64; x64) AppleWebKit/537.36 (KHTML, like Gecko) Chrome/96.0.4664.93 Safari/537.36" etag="u3WTBAfDYOEPInxeaorB" version="16.1.0" type="github">
  <diagram id="MHoIRFLsvcC200s5u-gR" name="Page-1">
    <mxGraphModel dx="1635" dy="877" grid="1" gridSize="10" guides="1" tooltips="1" connect="1" arrows="1" fold="1" page="1" pageScale="1" pageWidth="827" pageHeight="1169" math="0" shadow="0">
      <root>
        <mxCell id="0" />
        <mxCell id="1" parent="0" />
        <mxCell id="laRVKyOsnezSxJ92oTZl-1" value="&lt;font style=&quot;font-size: 28px&quot;&gt;start&lt;/font&gt;" style="rounded=1;whiteSpace=wrap;html=1;" vertex="1" parent="1">
          <mxGeometry x="360" y="80" width="120" height="60" as="geometry" />
        </mxCell>
        <mxCell id="laRVKyOsnezSxJ92oTZl-3" value="end" style="rounded=1;whiteSpace=wrap;html=1;fontSize=28;" vertex="1" parent="1">
          <mxGeometry x="360" y="780" width="120" height="60" as="geometry" />
        </mxCell>
        <mxCell id="laRVKyOsnezSxJ92oTZl-4" value="&lt;font style=&quot;font-size: 18px&quot;&gt;qs&lt;/font&gt;" style="ellipse;whiteSpace=wrap;html=1;fontSize=28;" vertex="1" parent="1">
          <mxGeometry x="70" y="90" width="60" height="40" as="geometry" />
        </mxCell>
        <mxCell id="laRVKyOsnezSxJ92oTZl-6" value="&lt;font style=&quot;font-size: 18px&quot;&gt;lm&lt;br&gt;&lt;/font&gt;" style="ellipse;whiteSpace=wrap;html=1;fontSize=28;" vertex="1" parent="1">
          <mxGeometry x="390" y="210" width="60" height="40" as="geometry" />
        </mxCell>
        <mxCell id="laRVKyOsnezSxJ92oTZl-7" value="&lt;font style=&quot;font-size: 18px&quot;&gt;VH&lt;/font&gt;" style="ellipse;whiteSpace=wrap;html=1;fontSize=28;" vertex="1" parent="1">
          <mxGeometry x="740" y="90" width="60" height="40" as="geometry" />
        </mxCell>
        <mxCell id="laRVKyOsnezSxJ92oTZl-8" value="" style="endArrow=none;html=1;rounded=0;fontSize=18;entryX=0;entryY=0.5;entryDx=0;entryDy=0;exitX=1;exitY=0.5;exitDx=0;exitDy=0;" edge="1" parent="1" source="laRVKyOsnezSxJ92oTZl-4" target="laRVKyOsnezSxJ92oTZl-1">
          <mxGeometry width="50" height="50" relative="1" as="geometry">
            <mxPoint x="390" y="460" as="sourcePoint" />
            <mxPoint x="440" y="410" as="targetPoint" />
          </mxGeometry>
        </mxCell>
        <mxCell id="laRVKyOsnezSxJ92oTZl-9" value="" style="endArrow=none;html=1;rounded=0;fontSize=18;entryX=0.5;entryY=1;entryDx=0;entryDy=0;exitX=0.5;exitY=0;exitDx=0;exitDy=0;" edge="1" parent="1" source="laRVKyOsnezSxJ92oTZl-6" target="laRVKyOsnezSxJ92oTZl-1">
          <mxGeometry width="50" height="50" relative="1" as="geometry">
            <mxPoint x="390" y="460" as="sourcePoint" />
            <mxPoint x="440" y="410" as="targetPoint" />
          </mxGeometry>
        </mxCell>
        <mxCell id="laRVKyOsnezSxJ92oTZl-10" value="" style="endArrow=none;html=1;rounded=0;fontSize=18;entryX=0;entryY=0.5;entryDx=0;entryDy=0;exitX=1;exitY=0.5;exitDx=0;exitDy=0;" edge="1" parent="1" source="laRVKyOsnezSxJ92oTZl-1" target="laRVKyOsnezSxJ92oTZl-7">
          <mxGeometry width="50" height="50" relative="1" as="geometry">
            <mxPoint x="390" y="460" as="sourcePoint" />
            <mxPoint x="440" y="410" as="targetPoint" />
          </mxGeometry>
        </mxCell>
        <mxCell id="laRVKyOsnezSxJ92oTZl-11" value="&lt;font style=&quot;font-size: 18px&quot;&gt;QV&lt;/font&gt;" style="ellipse;whiteSpace=wrap;html=1;fontSize=28;" vertex="1" parent="1">
          <mxGeometry x="70" y="680" width="60" height="40" as="geometry" />
        </mxCell>
        <mxCell id="laRVKyOsnezSxJ92oTZl-12" value="&lt;font style=&quot;font-size: 18px&quot;&gt;qb&lt;/font&gt;" style="ellipse;whiteSpace=wrap;html=1;fontSize=28;" vertex="1" parent="1">
          <mxGeometry x="390" y="680" width="60" height="40" as="geometry" />
        </mxCell>
        <mxCell id="laRVKyOsnezSxJ92oTZl-13" value="&lt;font style=&quot;font-size: 18px&quot;&gt;ni&lt;/font&gt;" style="ellipse;whiteSpace=wrap;html=1;fontSize=28;" vertex="1" parent="1">
          <mxGeometry x="740" y="680" width="60" height="40" as="geometry" />
        </mxCell>
        <mxCell id="laRVKyOsnezSxJ92oTZl-14" value="" style="endArrow=none;html=1;rounded=0;fontSize=18;exitX=1;exitY=1;exitDx=0;exitDy=0;entryX=0;entryY=0.5;entryDx=0;entryDy=0;" edge="1" parent="1" source="laRVKyOsnezSxJ92oTZl-11" target="laRVKyOsnezSxJ92oTZl-3">
          <mxGeometry width="50" height="50" relative="1" as="geometry">
            <mxPoint x="390" y="460" as="sourcePoint" />
            <mxPoint x="440" y="410" as="targetPoint" />
          </mxGeometry>
        </mxCell>
        <mxCell id="laRVKyOsnezSxJ92oTZl-15" value="" style="endArrow=none;html=1;rounded=0;fontSize=18;exitX=0.5;exitY=0;exitDx=0;exitDy=0;entryX=0.5;entryY=1;entryDx=0;entryDy=0;" edge="1" parent="1" source="laRVKyOsnezSxJ92oTZl-3" target="laRVKyOsnezSxJ92oTZl-12">
          <mxGeometry width="50" height="50" relative="1" as="geometry">
            <mxPoint x="390" y="460" as="sourcePoint" />
            <mxPoint x="380" y="730" as="targetPoint" />
          </mxGeometry>
        </mxCell>
        <mxCell id="laRVKyOsnezSxJ92oTZl-16" value="" style="endArrow=none;html=1;rounded=0;fontSize=18;exitX=1;exitY=0.5;exitDx=0;exitDy=0;entryX=0;entryY=1;entryDx=0;entryDy=0;" edge="1" parent="1" source="laRVKyOsnezSxJ92oTZl-3" target="laRVKyOsnezSxJ92oTZl-13">
          <mxGeometry width="50" height="50" relative="1" as="geometry">
            <mxPoint x="390" y="460" as="sourcePoint" />
            <mxPoint x="440" y="410" as="targetPoint" />
          </mxGeometry>
        </mxCell>
        <mxCell id="laRVKyOsnezSxJ92oTZl-17" value="&lt;font style=&quot;font-size: 18px&quot;&gt;jz&lt;/font&gt;" style="ellipse;whiteSpace=wrap;html=1;fontSize=28;" vertex="1" parent="1">
          <mxGeometry x="70" y="400" width="60" height="40" as="geometry" />
        </mxCell>
        <mxCell id="laRVKyOsnezSxJ92oTZl-18" value="" style="endArrow=none;html=1;rounded=0;fontSize=18;entryX=0.5;entryY=1;entryDx=0;entryDy=0;exitX=0.5;exitY=0;exitDx=0;exitDy=0;" edge="1" parent="1" source="laRVKyOsnezSxJ92oTZl-17" target="laRVKyOsnezSxJ92oTZl-4">
          <mxGeometry width="50" height="50" relative="1" as="geometry">
            <mxPoint x="390" y="460" as="sourcePoint" />
            <mxPoint x="440" y="410" as="targetPoint" />
          </mxGeometry>
        </mxCell>
        <mxCell id="laRVKyOsnezSxJ92oTZl-19" value="" style="endArrow=none;html=1;rounded=0;fontSize=18;exitX=1;exitY=1;exitDx=0;exitDy=0;entryX=0;entryY=0;entryDx=0;entryDy=0;" edge="1" parent="1" source="laRVKyOsnezSxJ92oTZl-4" target="laRVKyOsnezSxJ92oTZl-6">
          <mxGeometry width="50" height="50" relative="1" as="geometry">
            <mxPoint x="390" y="460" as="sourcePoint" />
            <mxPoint x="370" y="210" as="targetPoint" />
          </mxGeometry>
        </mxCell>
        <mxCell id="laRVKyOsnezSxJ92oTZl-20" value="" style="endArrow=none;html=1;rounded=0;fontSize=18;exitX=1;exitY=0;exitDx=0;exitDy=0;entryX=0;entryY=0;entryDx=0;entryDy=0;" edge="1" parent="1" source="laRVKyOsnezSxJ92oTZl-4" target="laRVKyOsnezSxJ92oTZl-7">
          <mxGeometry width="50" height="50" relative="1" as="geometry">
            <mxPoint x="390" y="460" as="sourcePoint" />
            <mxPoint x="440" y="410" as="targetPoint" />
            <Array as="points">
              <mxPoint x="420" y="30" />
            </Array>
          </mxGeometry>
        </mxCell>
        <mxCell id="laRVKyOsnezSxJ92oTZl-21" value="" style="endArrow=none;html=1;rounded=0;fontSize=18;exitX=1;exitY=0.5;exitDx=0;exitDy=0;entryX=0;entryY=1;entryDx=0;entryDy=0;" edge="1" parent="1" source="laRVKyOsnezSxJ92oTZl-17" target="laRVKyOsnezSxJ92oTZl-7">
          <mxGeometry width="50" height="50" relative="1" as="geometry">
            <mxPoint x="390" y="460" as="sourcePoint" />
            <mxPoint x="440" y="410" as="targetPoint" />
          </mxGeometry>
        </mxCell>
        <mxCell id="laRVKyOsnezSxJ92oTZl-22" value="" style="endArrow=none;html=1;rounded=0;fontSize=18;exitX=1;exitY=0;exitDx=0;exitDy=0;entryX=0;entryY=1;entryDx=0;entryDy=0;" edge="1" parent="1" source="laRVKyOsnezSxJ92oTZl-17" target="laRVKyOsnezSxJ92oTZl-6">
          <mxGeometry width="50" height="50" relative="1" as="geometry">
            <mxPoint x="390" y="460" as="sourcePoint" />
            <mxPoint x="440" y="410" as="targetPoint" />
          </mxGeometry>
        </mxCell>
        <mxCell id="laRVKyOsnezSxJ92oTZl-23" value="" style="endArrow=none;html=1;rounded=0;fontSize=18;exitX=0.5;exitY=1;exitDx=0;exitDy=0;entryX=0.5;entryY=0;entryDx=0;entryDy=0;" edge="1" parent="1" source="laRVKyOsnezSxJ92oTZl-17" target="laRVKyOsnezSxJ92oTZl-11">
          <mxGeometry width="50" height="50" relative="1" as="geometry">
            <mxPoint x="390" y="460" as="sourcePoint" />
            <mxPoint x="440" y="410" as="targetPoint" />
          </mxGeometry>
        </mxCell>
        <mxCell id="laRVKyOsnezSxJ92oTZl-25" value="&lt;font style=&quot;font-size: 18px&quot;&gt;dr&lt;/font&gt;" style="ellipse;whiteSpace=wrap;html=1;fontSize=28;" vertex="1" parent="1">
          <mxGeometry x="590" y="400" width="60" height="40" as="geometry" />
        </mxCell>
        <mxCell id="laRVKyOsnezSxJ92oTZl-26" value="" style="endArrow=none;html=1;rounded=0;fontSize=18;exitX=1;exitY=1;exitDx=0;exitDy=0;entryX=0;entryY=0;entryDx=0;entryDy=0;" edge="1" parent="1" source="laRVKyOsnezSxJ92oTZl-17" target="laRVKyOsnezSxJ92oTZl-13">
          <mxGeometry width="50" height="50" relative="1" as="geometry">
            <mxPoint x="390" y="460" as="sourcePoint" />
            <mxPoint x="440" y="410" as="targetPoint" />
          </mxGeometry>
        </mxCell>
        <mxCell id="laRVKyOsnezSxJ92oTZl-27" value="" style="endArrow=none;html=1;rounded=0;fontSize=18;exitX=1;exitY=0.5;exitDx=0;exitDy=0;entryX=0;entryY=0.5;entryDx=0;entryDy=0;" edge="1" parent="1" source="laRVKyOsnezSxJ92oTZl-17" target="laRVKyOsnezSxJ92oTZl-25">
          <mxGeometry width="50" height="50" relative="1" as="geometry">
            <mxPoint x="390" y="460" as="sourcePoint" />
            <mxPoint x="440" y="410" as="targetPoint" />
            <Array as="points" />
          </mxGeometry>
        </mxCell>
        <mxCell id="laRVKyOsnezSxJ92oTZl-28" value="" style="endArrow=none;html=1;rounded=0;fontSize=18;entryX=1;entryY=1;entryDx=0;entryDy=0;exitX=0;exitY=0;exitDx=0;exitDy=0;" edge="1" parent="1" source="laRVKyOsnezSxJ92oTZl-25" target="laRVKyOsnezSxJ92oTZl-6">
          <mxGeometry width="50" height="50" relative="1" as="geometry">
            <mxPoint x="390" y="460" as="sourcePoint" />
            <mxPoint x="440" y="410" as="targetPoint" />
          </mxGeometry>
        </mxCell>
        <mxCell id="laRVKyOsnezSxJ92oTZl-29" value="" style="endArrow=none;html=1;rounded=0;fontSize=18;entryX=0;entryY=1;entryDx=0;entryDy=0;exitX=1;exitY=0;exitDx=0;exitDy=0;" edge="1" parent="1" source="laRVKyOsnezSxJ92oTZl-11" target="laRVKyOsnezSxJ92oTZl-6">
          <mxGeometry width="50" height="50" relative="1" as="geometry">
            <mxPoint x="390" y="460" as="sourcePoint" />
            <mxPoint x="440" y="410" as="targetPoint" />
          </mxGeometry>
        </mxCell>
        <mxCell id="laRVKyOsnezSxJ92oTZl-30" value="" style="endArrow=none;html=1;rounded=0;fontSize=18;exitX=1;exitY=0.5;exitDx=0;exitDy=0;entryX=0;entryY=0.5;entryDx=0;entryDy=0;" edge="1" parent="1" source="laRVKyOsnezSxJ92oTZl-11" target="laRVKyOsnezSxJ92oTZl-12">
          <mxGeometry width="50" height="50" relative="1" as="geometry">
            <mxPoint x="390" y="460" as="sourcePoint" />
            <mxPoint x="440" y="410" as="targetPoint" />
          </mxGeometry>
        </mxCell>
        <mxCell id="laRVKyOsnezSxJ92oTZl-31" value="" style="endArrow=none;html=1;rounded=0;fontSize=18;entryX=0;entryY=0.5;entryDx=0;entryDy=0;exitX=1;exitY=0.5;exitDx=0;exitDy=0;" edge="1" parent="1" source="laRVKyOsnezSxJ92oTZl-12" target="laRVKyOsnezSxJ92oTZl-13">
          <mxGeometry width="50" height="50" relative="1" as="geometry">
            <mxPoint x="390" y="460" as="sourcePoint" />
            <mxPoint x="440" y="410" as="targetPoint" />
          </mxGeometry>
        </mxCell>
        <mxCell id="laRVKyOsnezSxJ92oTZl-32" value="&lt;font style=&quot;font-size: 18px&quot;&gt;HE&lt;/font&gt;" style="ellipse;whiteSpace=wrap;html=1;fontSize=28;" vertex="1" parent="1">
          <mxGeometry x="390" y="610" width="60" height="40" as="geometry" />
        </mxCell>
        <mxCell id="laRVKyOsnezSxJ92oTZl-33" value="" style="endArrow=none;html=1;rounded=0;fontSize=18;entryX=0.5;entryY=1;entryDx=0;entryDy=0;exitX=0.5;exitY=0;exitDx=0;exitDy=0;" edge="1" parent="1" source="laRVKyOsnezSxJ92oTZl-12" target="laRVKyOsnezSxJ92oTZl-32">
          <mxGeometry width="50" height="50" relative="1" as="geometry">
            <mxPoint x="390" y="460" as="sourcePoint" />
            <mxPoint x="440" y="410" as="targetPoint" />
          </mxGeometry>
        </mxCell>
        <mxCell id="laRVKyOsnezSxJ92oTZl-34" value="" style="endArrow=none;html=1;rounded=0;fontSize=18;entryX=0;entryY=1;entryDx=0;entryDy=0;exitX=1;exitY=0;exitDx=0;exitDy=0;" edge="1" parent="1" source="laRVKyOsnezSxJ92oTZl-11" target="laRVKyOsnezSxJ92oTZl-25">
          <mxGeometry width="50" height="50" relative="1" as="geometry">
            <mxPoint x="390" y="460" as="sourcePoint" />
            <mxPoint x="440" y="410" as="targetPoint" />
          </mxGeometry>
        </mxCell>
        <mxCell id="laRVKyOsnezSxJ92oTZl-35" value="&lt;font style=&quot;font-size: 18px&quot;&gt;fu&lt;/font&gt;" style="ellipse;whiteSpace=wrap;html=1;fontSize=28;" vertex="1" parent="1">
          <mxGeometry x="690" y="400" width="60" height="40" as="geometry" />
        </mxCell>
        <mxCell id="laRVKyOsnezSxJ92oTZl-36" value="" style="endArrow=none;html=1;rounded=0;fontSize=18;entryX=1;entryY=0.5;entryDx=0;entryDy=0;exitX=0;exitY=0.5;exitDx=0;exitDy=0;" edge="1" parent="1" source="laRVKyOsnezSxJ92oTZl-35" target="laRVKyOsnezSxJ92oTZl-25">
          <mxGeometry width="50" height="50" relative="1" as="geometry">
            <mxPoint x="390" y="460" as="sourcePoint" />
            <mxPoint x="440" y="410" as="targetPoint" />
          </mxGeometry>
        </mxCell>
        <mxCell id="laRVKyOsnezSxJ92oTZl-37" value="" style="endArrow=none;html=1;rounded=0;fontSize=18;entryX=0.5;entryY=1;entryDx=0;entryDy=0;exitX=0.5;exitY=0;exitDx=0;exitDy=0;" edge="1" parent="1" source="laRVKyOsnezSxJ92oTZl-13" target="laRVKyOsnezSxJ92oTZl-25">
          <mxGeometry width="50" height="50" relative="1" as="geometry">
            <mxPoint x="390" y="460" as="sourcePoint" />
            <mxPoint x="440" y="410" as="targetPoint" />
            <Array as="points" />
          </mxGeometry>
        </mxCell>
        <mxCell id="laRVKyOsnezSxJ92oTZl-38" value="" style="endArrow=none;html=1;rounded=0;fontSize=18;entryX=0.5;entryY=1;entryDx=0;entryDy=0;exitX=0.5;exitY=0;exitDx=0;exitDy=0;" edge="1" parent="1" source="laRVKyOsnezSxJ92oTZl-25" target="laRVKyOsnezSxJ92oTZl-7">
          <mxGeometry width="50" height="50" relative="1" as="geometry">
            <mxPoint x="390" y="460" as="sourcePoint" />
            <mxPoint x="440" y="410" as="targetPoint" />
          </mxGeometry>
        </mxCell>
        <mxCell id="laRVKyOsnezSxJ92oTZl-39" value="" style="endArrow=none;html=1;rounded=0;fontSize=18;entryX=0.5;entryY=1;entryDx=0;entryDy=0;exitX=0.5;exitY=0;exitDx=0;exitDy=0;" edge="1" parent="1" source="laRVKyOsnezSxJ92oTZl-13" target="laRVKyOsnezSxJ92oTZl-7">
          <mxGeometry width="50" height="50" relative="1" as="geometry">
            <mxPoint x="390" y="460" as="sourcePoint" />
            <mxPoint x="440" y="410" as="targetPoint" />
            <Array as="points" />
          </mxGeometry>
        </mxCell>
      </root>
    </mxGraphModel>
  </diagram>
</mxfile>
